<svg xmlns="http://www.w3.org/2000/svg" xmlns:xlink="http://www.w3.org/1999/xlink" viewBox="0 0 19 23" fill="#fff" fill-rule="evenodd" stroke="#000" stroke-linecap="round" stroke-linejoin="round"><use xlink:href="#A" x=".5" y=".5"/><symbol id="A" overflow="visible"><g stroke="none"><path d="M.682 20.272l-.68-18.16C-.02 1.513.44 1.005 1.037.968L16.483.002c.6-.038 1.135.425 1.174 1.035l.002.07v19.788c0 .61-.495 1.106-1.106 1.106-.016 0-.033 0-.05-.001l-14.764-.663C1.163 21.3.704 20.847.682 20.272z" fill="#ff4785"/><path d="M13.04 2.704l.105-2.537L15.266 0l.1 2.617c.003.1-.07.167-.16.17-.04.001-.077-.01-.108-.035l-.818-.644-.97.735c-.072.055-.176.04-.23-.032-.024-.03-.035-.068-.034-.107zm-2.714 5.59c0 .43 2.898.224 3.288-.078 0-2.93-1.572-4.47-4.452-4.47S4.67 5.308 4.67 7.654c0 4.086 5.514 4.164 5.514 6.392 0 .626-.307.997-.98.997-.878 0-1.225-.448-1.185-1.973 0-.33-3.35-.434-3.45 0-.26 3.695 2.042 4.76 4.676 4.76 2.553 0 4.554-1.36 4.554-3.824 0-4.38-5.595-4.262-5.595-6.43 0-.88.654-.997 1.04-.997.4 0 1.144.072 1.083 1.714z" fill-rule="nonzero"/></g></symbol></svg>